<?xml version="1.0" encoding="UTF-8" standalone="no"?>
<!-- Created with Inkscape (http://www.inkscape.org/) -->

<svg
   version="1.1"
   id="svg1"
   width="694.66669"
   height="422.66666"
   viewBox="0 0 694.66669 422.66666"
   sodipodi:docname="icon-light.svg"
   inkscape:version="1.4.2 (f4327f4, 2025-05-13)"
   xmlns:inkscape="http://www.inkscape.org/namespaces/inkscape"
   xmlns:sodipodi="http://sodipodi.sourceforge.net/DTD/sodipodi-0.dtd"
   xmlns="http://www.w3.org/2000/svg"
   xmlns:svg="http://www.w3.org/2000/svg">
  <defs
     id="defs1" />
  <g
     inkscape:groupmode="layer"
     inkscape:label="Image"
     id="g1">
    <g class="icon-group" id="g7">
      <path
         class="icon-rojo"
         style="fill:#951010"
         d="m 2.5393419,418.35405 c 0.6356696,-1.6614 3.0719282,-8.12073 5.4139079,-14.35406 2.3419802,-6.23333 5.9861492,-15.83333 8.0981542,-21.33333 2.112005,-5.5 10.516084,-28 18.675731,-50 C 62.957709,256.55153 78.83469,213.95788 82.688238,204 c 2.128414,-5.5 10.549721,-28 18.714012,-50 8.1643,-22 20.43556,-55.000002 27.26949,-73.333335 6.83392,-18.333333 15.42281,-41.433333 19.08642,-51.333332 3.6636,-9.9 7.68192,-20.5499999 8.92958,-23.6666665 L 158.95622,0 h 39.89707 c 36.80134,0 39.9596,0.18105051 40.70292,2.3333333 0.44321,1.2833333 3.07617,8.3333327 5.85102,15.6666667 2.77485,7.333333 7.47782,20.038125 10.45105,28.232871 2.97322,8.194747 6.88858,18.694746 8.7008,23.333333 1.81222,4.638587 9.41021,24.933794 16.88442,45.100456 7.47421,20.16667 17.92138,48.22587 23.21592,62.35378 l 9.62644,25.6871 -37.45357,-0.35377 L 239.37872,202 227.14542,169.33333 c -6.72832,-17.96667 -15.73853,-42.11511 -20.02269,-53.66321 -4.28417,-11.5481 -8.08939,-20.992193 -8.45606,-20.986867 -0.36666,0.0053 -4.96001,11.553767 -10.20743,25.663217 C 183.21182,134.45591 172.21296,164 164.01732,186 c -8.19563,21.99999 -18.78991,50.49999 -23.54285,63.33333 -4.75293,12.83333 -10.37144,27.83333 -12.48558,33.33333 -2.11413,5.5 -10.53292,28 -18.70842,50 -8.17549,22 -18.911529,50.8 -23.857861,64 l -8.993331,24 -37.522849,0.35405 -37.5228501,0.35406 z"
         id="path8" />
      <path
         class="icon-negro"
         style="fill:#000000"
         d="m 320.92969,420.39957 c -0.59834,-0.99233 -11.22464,-29.29625 -29.80812,-79.39613 l -7.78823,-20.99654 -56.47599,-0.003 c -44.61873,-0.003 -56.34687,-0.35338 -55.86102,-1.67012 0.33823,-0.91667 5.57467,-16.51667 11.63654,-34.66667 l 11.02158,-33 h 69.20136 69.20137 l 1.26029,3 c 0.69316,1.65 7.90386,21 16.02377,43 8.11991,22 16.0096,43.15 17.53265,47 l 2.76917,7 64.17848,-2.3e-4 c 51.78274,-1.8e-4 66.23868,-0.39081 74.84514,-2.02245 57.12062,-10.82913 100.20786,-53.4573 112.10164,-110.90727 3.10583,-15.00194 2.06176,-47.7211 -1.98774,-62.29188 -8.63,-31.05221 -26.58907,-57.62226 -51.93386,-76.835018 -12.31525,-9.335642 -33.05264,-19.343934 -48.8467,-23.574425 l -13.33334,-3.571378 -59.17641,-0.486645 c -56.74432,-0.466645 -59.1374,-0.387132 -58.2273,1.934661 0.52201,1.331719 6.62876,17.721306 13.57056,36.421305 6.94179,18.7 14.36194,38.5 16.48922,44 2.12728,5.5 8.64991,22.9 14.49472,38.66667 11.65651,31.44398 39.43281,105.94109 40.89713,109.68768 0.86819,2.22131 -1.20257,2.33433 -36.64559,2 l -37.56577,-0.35435 -6.46498,-17.33334 c -3.55574,-9.53333 -13.15105,-35.33333 -21.32292,-57.33333 -8.17187,-22 -16.59372,-44.5 -18.71523,-50 -2.12151,-5.5 -8.63962,-22.9 -14.48469,-38.66666 C 331.67036,124.23333 319.28101,90.933331 309.98354,65.999998 300.68607,41.066666 291.37817,16.016666 289.29933,10.333333 L 285.51962,0 384.42648,0.01375654 C 486.83086,0.02799953 505.73258,0.75544236 528.00002,5.5392612 583.63386,17.491343 634.11155,53.574103 662.943,102 c 37.53392,63.04274 40.56549,137.12306 8.27893,202.30666 -29.43806,59.43278 -84.10363,100.60371 -151.22191,113.89156 -9.79818,1.93981 -24.00479,2.31308 -104.88038,2.75567 -51.45087,0.28156 -93.83634,0.0321 -94.18995,-0.55432 z"
         id="path7" />
    </g>
  </g>
</svg>
